<?xml version="1.0" encoding="UTF-8"?><svg xmlns="http://www.w3.org/2000/svg" viewBox="0 0 2855.82 1209.52"><defs><style>.cls-1{fill:#777;font-family:SegoeUI-Semibold, 'Segoe UI';font-size:425px;font-weight:700;}.cls-2{letter-spacing:-.03em;}.cls-3{letter-spacing:-.03em;}.cls-4{letter-spacing:-.02em;}.cls-5{fill:#07a5ee;}.cls-6{fill:#81bb06;}.cls-7{fill:#f15827;}.cls-8{letter-spacing:-.04em;}.cls-9{fill:#feb907;}</style></defs><g id="Layer_1"><text class="cls-1" transform="translate(558.2 762.06)"><tspan class="cls-4" x="0" y="0">Mic</tspan><tspan class="cls-2" x="679.47" y="0">r</tspan><tspan class="cls-8" x="824.96" y="0">o</tspan><tspan class="cls-3" x="1063.63" y="0">food</tspan></text></g><g id="Layer_4"><path class="cls-7" d="M243.7,461.84c0-32.9-.6-65.82,.25-98.7,.43-16.84-2.79-25.78-22.87-25.45-65.83,1.07-131.7,.8-197.55,.13-16.45-.17-22.8,4.73-22.6,21.93,.76,66.97,.76,133.96,0,200.93-.2,17.25,6.25,22.06,22.65,21.89,65.85-.67,131.71-.91,197.55,.11,20.12,.31,23.26-8.89,22.82-25.66-.83-31.7-.24-63.45-.24-95.17Zm-121.22-109.8c103.08,0,103.08,68.72,103.08,68.72H19.4s0-68.72,103.08-68.72Zm103.08,171.81c0,19.01-15.35,34.36-34.36,34.36H53.76c-19.01,0-34.36-15.35-34.36-34.36v-11.45H225.57v11.45Zm-11.45-34.36H30.85c-12.6,0-22.91-10.19-22.91-22.91s10.31-22.91,22.91-22.91h103.08l28.63,22.91,28.63-22.91h22.91c12.71,0,22.91,10.31,22.91,22.91s-10.19,22.91-22.91,22.91Z"/><g><polygon class="cls-5" points="70.43 652.09 60.02 653.13 60.02 664.79 70.43 664.79 70.43 652.09"/><rect class="cls-5" x="80.84" y="675.2" width="10.41" height="52.05"/><polygon class="cls-5" points="91.25 649.69 80.84 650.63 80.84 664.79 91.25 664.79 91.25 649.69"/><rect class="cls-5" x="60.02" y="675.2" width="10.41" height="52.05"/><path class="cls-5" d="M244.04,631.58c.39-21.41-8.67-25.3-27.37-25.05-62.47,.84-124.98,1.08-187.44-.11-20.97-.4-29.77,4.82-28.45,27.35,1.79,30.52,.45,61.23,.45,91.86,0,32.98,.89,66-.34,98.94-.72,19.16,4.14,27.27,25.28,26.86,63.64-1.24,127.32-1.04,190.97-.09,19.23,.29,27.27-4.49,26.89-25.41-1.15-64.77-1.17-129.59,0-194.36Zm-17.46,1.98l-124.92,14.68v16.55h124.92v10.41H101.66v52.05h124.92c0,18.84-5.93,36.02-17.49,51.53-11.56,15.51-26.55,26.86-44.97,34.35v18.22H80.84v-18.22c-18.32-7.5-33.42-18.95-44.97-34.35-11.56-15.41-17.49-32.69-17.49-51.53h31.23v-83.28l176.97-20.82v10.41Z"/></g><path class="cls-9" d="M511.7,631.58c.39-21.41-8.67-25.3-27.37-25.05-62.47,.84-124.98,1.08-187.44-.11-20.97-.4-29.77,4.82-28.45,27.35,1.79,30.52,.45,61.23,.45,91.86,0,32.98,.89,66-.34,98.94-.72,19.16,4.14,27.27,25.28,26.86,63.64-1.24,127.32-1.04,190.97-.09,19.23,.29,27.27-4.49,26.89-25.41-1.15-64.77-1.17-129.59,0-194.36Zm-223.88,203.49c0-31.25,0-62.51,3.44-95.54,2.81-26.36,7.81-53.86,13.23-81.58h-6.25v-20.84h52.09v20.84h-6.25c5.42,27.71,10.42,55.22,13.23,81.58,3.44,33.03,3.44,64.28,3.44,95.54h-72.93Zm208.37-62.51v20.84c0,23.02-18.66,41.67-41.67,41.67h-31.25c-23.02,0-41.67-18.66-41.67-41.67v-20.84h70.74l28.75-49.7,16.25,9.38-23.34,40.32h22.19Z"/><path class="cls-6" d="M511.36,461.84c0-32.9-.6-65.82,.25-98.7,.43-16.84-2.79-25.78-22.87-25.45-65.83,1.07-131.7,.8-197.55,.13-16.45-.17-22.8,4.73-22.6,21.93,.76,66.97,.76,133.96,0,200.93-.2,17.25,6.25,22.06,22.65,21.89,65.85-.67,131.71-.91,197.55,.11,20.12,.31,23.26-8.89,22.82-25.66-.83-31.7-.24-63.45-.24-95.17Zm-82.42-115.61v14.67c-9.82,0-18.22,7.33-18.22,17.27s8.4,19.64,18.22,19.64h15.02c18.34,0,34.07,13.49,34.07,31.23v11.83h-14.79v-8.75c0-12.89-8.99-20.11-19.28-20.11h-15.02c-18.22,0-32.89-14.67-32.89-32.89s14.67-32.89,32.89-32.89Zm-17.03,86.95c38.68,11.83,66.96,47.91,66.96,90.5v11.83h-153.43c-14.55-10.77-24.01-27.92-24.01-47.32,0-13.01,4.26-24.84,11.36-34.66,2.84,4.26,3.9,8.87,4.26,12.42,1.3,11.59,6.51,22.24,14.79,30.76,9.58,9.82,22.48,15.14,36.32,15.14,17.51,0,33.83-8.87,43.3-23.66,10.77-16.33,11-38.45,.47-55.01Zm-61.99-22.24l.24,.35c5.8,5.91,13.49,8.75,21.89,9.58,11.47,1.06,22.59,7.22,29.93,18.34,8.04,12.78,7.93,29.81-.47,42.47-14.2,21.89-43.89,24.25-61.28,6.51-6.62-6.51-10.41-14.91-11.36-23.66-.95-8.64-4.38-16.8-10.41-22.83-6.86-6.74-6.86-18.1,0-24.96l6.15-6.27c6.86-6.86,18.22-6.86,25.32,.47Zm-69.56-17.39c-3.43-3.55-3.43-9.23,0-12.66,1.66-1.66,3.67-2.48,5.8-2.6,.12-2.13,.95-4.14,2.6-5.8,3.43-3.43,9.11-3.43,12.66,0,2.6,2.72,3.19,6.86,1.54,10.06l16.68,16.92c-1.18,.83-2.37,1.66-3.43,2.72l-6.15,6.15c-1.06,1.18-2.01,2.37-2.72,3.55l-16.92-16.8c-3.31,1.66-7.33,1.06-10.06-1.54Zm198.5,177.45h-165.62c-13.01,0-23.66-10.53-23.66-23.66h212.94c0,13.13-10.53,23.66-23.66,23.66Zm23.66-118.3h-14.67v-28.75c0-22-17.27-39.98-39.28-39.98v-14.67c9.82,0,18.1-8.28,18.1-18.1h14.79c0,9.11-3.79,17.27-9.82,23.3,18.34,8.75,30.88,27.56,30.88,49.45v28.75Z"/></g></svg>